<?xml version="1.0" encoding="utf-8" standalone="no"?>
<!DOCTYPE svg PUBLIC "-//W3C//DTD SVG 1.1//EN" "http://www.w3.org/Graphics/SVG/1.1/DTD/svg11.dtd">
<svg width="600" height="400" version="1.1" xmlns:xlink="http://www.w3.org/1999/xlink" xmlns="http://www.w3.org/2000/svg">
  <polyline points="42.116,370.947 42.116,374.947" style="fill:none;stroke:black;stroke-width:1" />
  <polyline points="57.0401,370.947 57.0401,374.947" style="fill:none;stroke:black;stroke-width:1" />
  <polyline points="86.8883,370.947 86.8883,374.947" style="fill:none;stroke:black;stroke-width:1" />
  <polyline points="101.8124,370.947 101.8124,374.947" style="fill:none;stroke:black;stroke-width:1" />
  <polyline points="116.7365,370.947 116.7365,374.947" style="fill:none;stroke:black;stroke-width:1" />
  <polyline points="131.6606,370.947 131.6606,374.947" style="fill:none;stroke:black;stroke-width:1" />
  <polyline points="161.5088,370.947 161.5088,374.947" style="fill:none;stroke:black;stroke-width:1" />
  <polyline points="176.4329,370.947 176.4329,374.947" style="fill:none;stroke:black;stroke-width:1" />
  <polyline points="191.357,370.947 191.357,374.947" style="fill:none;stroke:black;stroke-width:1" />
  <polyline points="206.2811,370.947 206.2811,374.947" style="fill:none;stroke:black;stroke-width:1" />
  <polyline points="236.1293,370.947 236.1293,374.947" style="fill:none;stroke:black;stroke-width:1" />
  <polyline points="251.0534,370.947 251.0534,374.947" style="fill:none;stroke:black;stroke-width:1" />
  <polyline points="265.9775,370.947 265.9775,374.947" style="fill:none;stroke:black;stroke-width:1" />
  <polyline points="280.9016,370.947 280.9016,374.947" style="fill:none;stroke:black;stroke-width:1" />
  <polyline points="310.7498,370.947 310.7498,374.947" style="fill:none;stroke:black;stroke-width:1" />
  <polyline points="325.6739,370.947 325.6739,374.947" style="fill:none;stroke:black;stroke-width:1" />
  <polyline points="340.598,370.947 340.598,374.947" style="fill:none;stroke:black;stroke-width:1" />
  <polyline points="355.5221,370.947 355.5221,374.947" style="fill:none;stroke:black;stroke-width:1" />
  <polyline points="385.3703,370.947 385.3703,374.947" style="fill:none;stroke:black;stroke-width:1" />
  <polyline points="400.2944,370.947 400.2944,374.947" style="fill:none;stroke:black;stroke-width:1" />
  <polyline points="415.2185,370.947 415.2185,374.947" style="fill:none;stroke:black;stroke-width:1" />
  <polyline points="430.1427,370.947 430.1427,374.947" style="fill:none;stroke:black;stroke-width:1" />
  <polyline points="445.0668,370.947 445.0668,374.947" style="fill:none;stroke:black;stroke-width:1" />
  <polyline points="459.9909,370.947 459.9909,374.947" style="fill:none;stroke:black;stroke-width:1" />
  <polyline points="474.915,370.947 474.915,374.947" style="fill:none;stroke:black;stroke-width:1" />
  <polyline points="489.8391,370.947 489.8391,374.947" style="fill:none;stroke:black;stroke-width:1" />
  <polyline points="504.7632,370.947 504.7632,374.947" style="fill:none;stroke:black;stroke-width:1" />
  <polyline points="534.6114,370.947 534.6114,374.947" style="fill:none;stroke:black;stroke-width:1" />
  <polyline points="549.5355,370.947 549.5355,374.947" style="fill:none;stroke:black;stroke-width:1" />
  <polyline points="564.4596,370.947 564.4596,374.947" style="fill:none;stroke:black;stroke-width:1" />
  <polyline points="579.3837,370.947 579.3837,374.947" style="fill:none;stroke:black;stroke-width:1" />
  <polyline points="34.498,364.0161 30.498,364.0161" style="fill:none;stroke:black;stroke-width:1" />
  <polyline points="34.498,310.6206 30.498,310.6206" style="fill:none;stroke:black;stroke-width:1" />
  <polyline points="34.498,283.9228 30.498,283.9228" style="fill:none;stroke:black;stroke-width:1" />
  <polyline points="34.498,257.2251 30.498,257.2251" style="fill:none;stroke:black;stroke-width:1" />
  <polyline points="34.498,203.8295 30.498,203.8295" style="fill:none;stroke:black;stroke-width:1" />
  <polyline points="34.498,177.1318 30.498,177.1318" style="fill:none;stroke:black;stroke-width:1" />
  <polyline points="34.498,150.434 30.498,150.434" style="fill:none;stroke:black;stroke-width:1" />
  <polyline points="34.498,97.0384 30.498,97.0384" style="fill:none;stroke:black;stroke-width:1" />
  <polyline points="34.498,70.3407 30.498,70.3407" style="fill:none;stroke:black;stroke-width:1" />
  <polyline points="34.498,43.6429 30.498,43.6429" style="fill:none;stroke:black;stroke-width:1" />
  <text dominant-baseline="hanging" text-anchor="middle" transform="translate(71.9642,381.947)" font-family="Segoe UI" font-size="12" font-weight="400" fill="black">-0.2</text>
  <text dominant-baseline="hanging" text-anchor="middle" transform="translate(146.5847,381.947)" font-family="Segoe UI" font-size="12" font-weight="400" fill="black">-0.1</text>
  <text dominant-baseline="hanging" text-anchor="middle" transform="translate(221.2052,381.947)" font-family="Segoe UI" font-size="12" font-weight="400" fill="black">0</text>
  <text dominant-baseline="hanging" text-anchor="middle" transform="translate(295.8257,381.947)" font-family="Segoe UI" font-size="12" font-weight="400" fill="black">0.1</text>
  <text dominant-baseline="hanging" text-anchor="middle" transform="translate(370.4462,381.947)" font-family="Segoe UI" font-size="12" font-weight="400" fill="black">0.2</text>
  <text dominant-baseline="hanging" text-anchor="middle" transform="translate(445.0668,381.947)" font-family="Segoe UI" font-size="12" font-weight="400" fill="black">0.3</text>
  <text dominant-baseline="hanging" text-anchor="middle" transform="translate(519.6873,381.947)" font-family="Segoe UI" font-size="12" font-weight="400" fill="black">0.4</text>
  <polyline points="71.9642,370.947 71.9642,377.947" style="fill:none;stroke:black;stroke-width:1" />
  <polyline points="146.5847,370.947 146.5847,377.947" style="fill:none;stroke:black;stroke-width:1" />
  <polyline points="221.2052,370.947 221.2052,377.947" style="fill:none;stroke:black;stroke-width:1" />
  <polyline points="295.8257,370.947 295.8257,377.947" style="fill:none;stroke:black;stroke-width:1" />
  <polyline points="370.4462,370.947 370.4462,377.947" style="fill:none;stroke:black;stroke-width:1" />
  <polyline points="445.0668,370.947 445.0668,377.947" style="fill:none;stroke:black;stroke-width:1" />
  <polyline points="519.6873,370.947 519.6873,377.947" style="fill:none;stroke:black;stroke-width:1" />
  <text dominant-baseline="middle" text-anchor="end" transform="translate(23.498,337.3184)" font-family="Segoe UI" font-size="12" font-weight="400" fill="black">-0.2</text>
  <text dominant-baseline="middle" text-anchor="end" transform="translate(23.498,230.5273)" font-family="Segoe UI" font-size="12" font-weight="400" fill="black">0</text>
  <text dominant-baseline="middle" text-anchor="end" transform="translate(23.498,123.7362)" font-family="Segoe UI" font-size="12" font-weight="400" fill="black">0.2</text>
  <polyline points="34.498,337.3184 27.498,337.3184" style="fill:none;stroke:black;stroke-width:1" />
  <polyline points="34.498,230.5273 27.498,230.5273" style="fill:none;stroke:black;stroke-width:1" />
  <polyline points="34.498,123.7362 27.498,123.7362" style="fill:none;stroke:black;stroke-width:1" />
  <ellipse cx="201.6227" cy="265.3302" rx="5" ry="5" style="fill:rgb(255,0,255);stroke:none;" />
  <ellipse cx="135.6128" cy="365.0722" rx="5" ry="5" style="fill:rgb(255,0,255);stroke:none;" />
  <ellipse cx="174.9211" cy="239.8537" rx="5" ry="5" style="fill:rgb(255,0,255);stroke:none;" />
  <ellipse cx="155.7661" cy="256.6306" rx="5" ry="5" style="fill:rgb(255,0,255);stroke:none;" />
  <ellipse cx="219.1328" cy="160.8849" rx="5" ry="5" style="fill:rgb(0,191,127);stroke:none;" />
  <ellipse cx="362.0699" cy="200.639" rx="5" ry="5" style="fill:rgb(0,191,127);stroke:none;" />
  <ellipse cx="329.0805" cy="189.2774" rx="5" ry="5" style="fill:rgb(0,191,127);stroke:none;" />
  <ellipse cx="327.419" cy="198.8741" rx="5" ry="5" style="fill:rgb(0,191,127);stroke:none;" />
  <ellipse cx="324.9963" cy="179.4464" rx="5" ry="5" style="fill:rgb(0,191,127);stroke:none;" />
  <ellipse cx="586.5348" cy="186.107" rx="5" ry="5" style="fill:rgb(0,191,127);stroke:none;" />
  <ellipse cx="345.2309" cy="228.6329" rx="5" ry="5" style="fill:rgb(0,191,127);stroke:none;" />
  <ellipse cx="472.111" cy="222.2017" rx="5" ry="5" style="fill:rgb(0,191,127);stroke:none;" />
  <ellipse cx="228.8177" cy="225.4446" rx="5" ry="5" style="fill:rgb(0,191,127);stroke:none;" />
  <ellipse cx="476.8776" cy="165.6405" rx="5" ry="5" style="fill:rgb(0,191,127);stroke:none;" />
  <ellipse cx="544.3896" cy="157.4128" rx="5" ry="5" style="fill:rgb(0,191,127);stroke:none;" />
  <ellipse cx="481.5886" cy="159.7785" rx="5" ry="5" style="fill:rgb(0,191,127);stroke:none;" />
  <ellipse cx="343.6024" cy="277.2563" rx="5" ry="5" style="fill:rgb(0,191,127);stroke:none;" />
  <ellipse cx="502.2473" cy="187.5828" rx="5" ry="5" style="fill:rgb(0,191,127);stroke:none;" />
  <ellipse cx="305.3486" cy="231.6429" rx="5" ry="5" style="fill:rgb(0,191,127);stroke:none;" />
  <ellipse cx="355.7637" cy="317.5541" rx="5" ry="5" style="fill:rgb(0,191,127);stroke:none;" />
  <ellipse cx="248.9298" cy="327.4587" rx="5" ry="5" style="fill:rgb(0,191,127);stroke:none;" />
  <ellipse cx="381.2277" cy="254.005" rx="5" ry="5" style="fill:rgb(0,191,127);stroke:none;" />
  <ellipse cx="345.2326" cy="233.3471" rx="5" ry="5" style="fill:rgb(0,191,127);stroke:none;" />
  <ellipse cx="175.0445" cy="244.1031" rx="5" ry="5" style="fill:rgb(255,0,0);stroke:none;" />
  <ellipse cx="165.1649" cy="335.7562" rx="5" ry="5" style="fill:rgb(255,0,0);stroke:none;" />
  <ellipse cx="168.3559" cy="367.5622" rx="5" ry="5" style="fill:rgb(255,0,0);stroke:none;" />
  <ellipse cx="144.5531" cy="291.4034" rx="5" ry="5" style="fill:rgb(255,0,0);stroke:none;" />
  <ellipse cx="149.7962" cy="269.9194" rx="5" ry="5" style="fill:rgb(255,0,0);stroke:none;" />
  <ellipse cx="239.3809" cy="298.9046" rx="5" ry="5" style="fill:rgb(255,0,0);stroke:none;" />
  <ellipse cx="109.7211" cy="303.6906" rx="5" ry="5" style="fill:rgb(255,0,0);stroke:none;" />
  <ellipse cx="149.5121" cy="302.7804" rx="5" ry="5" style="fill:rgb(255,0,0);stroke:none;" />
  <ellipse cx="175.2972" cy="355.7525" rx="5" ry="5" style="fill:rgb(255,0,0);stroke:none;" />
  <ellipse cx="128.3488" cy="296.9354" rx="5" ry="5" style="fill:rgb(255,0,0);stroke:none;" />
  <ellipse cx="175.0309" cy="272.3636" rx="5" ry="5" style="fill:rgb(255,0,0);stroke:none;" />
  <ellipse cx="162.5119" cy="343.4736" rx="5" ry="5" style="fill:rgb(255,0,0);stroke:none;" />
  <ellipse cx="192.0437" cy="301.1339" rx="5" ry="5" style="fill:rgb(255,0,0);stroke:none;" />
  <ellipse cx="179.7399" cy="191.0235" rx="5" ry="5" style="fill:rgb(255,0,0);stroke:none;" />
  <ellipse cx="192.6089" cy="310.3915" rx="5" ry="5" style="fill:rgb(255,0,0);stroke:none;" />
  <ellipse cx="147.0515" cy="309.4971" rx="5" ry="5" style="fill:rgb(255,0,0);stroke:none;" />
  <ellipse cx="177.9461" cy="306.3641" rx="5" ry="5" style="fill:rgb(255,0,0);stroke:none;" />
  <ellipse cx="152.6186" cy="277.8108" rx="5" ry="5" style="fill:rgb(255,0,0);stroke:none;" />
  <ellipse cx="216.0964" cy="312.4808" rx="5" ry="5" style="fill:rgb(255,0,0);stroke:none;" />
  <ellipse cx="211.3669" cy="244.544" rx="5" ry="5" style="fill:rgb(255,0,0);stroke:none;" />
  <ellipse cx="178.2162" cy="271.4764" rx="5" ry="5" style="fill:rgb(255,0,0);stroke:none;" />
  <ellipse cx="213.7373" cy="245.0341" rx="5" ry="5" style="fill:rgb(255,0,0);stroke:none;" />
  <ellipse cx="122.6393" cy="267.6671" rx="5" ry="5" style="fill:rgb(255,0,0);stroke:none;" />
  <ellipse cx="173.5182" cy="245.3633" rx="5" ry="5" style="fill:rgb(255,0,0);stroke:none;" />
  <ellipse cx="196.8191" cy="202.5203" rx="5" ry="5" style="fill:rgb(255,0,0);stroke:none;" />
  <ellipse cx="202.002" cy="214.4909" rx="5" ry="5" style="fill:rgb(255,0,0);stroke:none;" />
  <ellipse cx="250.7711" cy="258.5834" rx="5" ry="5" style="fill:rgb(255,0,0);stroke:none;" />
  <ellipse cx="296.6388" cy="178.2289" rx="5" ry="5" style="fill:rgb(255,0,0);stroke:none;" />
  <ellipse cx="48.5555" cy="132.5136" rx="5" ry="5" style="fill:rgb(255,0,0);stroke:none;" />
  <ellipse cx="125.486" cy="201.7421" rx="5" ry="5" style="fill:rgb(255,0,0);stroke:none;" />
  <ellipse cx="42.8942" cy="32.4308" rx="5" ry="5" style="fill:rgb(255,0,0);stroke:none;" />
  <ellipse cx="126.4525" cy="186.7559" rx="5" ry="5" style="fill:rgb(255,0,0);stroke:none;" />
  <ellipse cx="158.7051" cy="258.385" rx="5" ry="5" style="fill:rgb(255,0,0);stroke:none;" />
  <ellipse cx="217.6122" cy="176.8094" rx="5" ry="5" style="fill:rgb(255,0,0);stroke:none;" />
  <ellipse cx="169.7395" cy="205.0136" rx="5" ry="5" style="fill:rgb(255,0,0);stroke:none;" />
  <ellipse cx="110.6886" cy="122.7849" rx="5" ry="5" style="fill:rgb(255,0,0);stroke:none;" />
  <ellipse cx="104.6538" cy="74.8504" rx="5" ry="5" style="fill:rgb(255,0,0);stroke:none;" />
  <ellipse cx="40.0178" cy="52.0268" rx="5" ry="5" style="fill:rgb(255,0,0);stroke:none;" />
  <ellipse cx="79.7151" cy="55.0006" rx="5" ry="5" style="fill:rgb(255,0,0);stroke:none;" />
  <ellipse cx="196.8668" cy="272.315" rx="5" ry="5" style="fill:rgb(255,0,0);stroke:none;" />
  <ellipse cx="184.6355" cy="221.203" rx="5" ry="5" style="fill:rgb(255,0,0);stroke:none;" />
  <ellipse cx="200.9516" cy="267.9009" rx="5" ry="5" style="fill:rgb(255,0,0);stroke:none;" />
  <ellipse cx="125.2408" cy="194.9068" rx="5" ry="5" style="fill:rgb(255,0,0);stroke:none;" />
  <ellipse cx="203.5095" cy="107.4345" rx="5" ry="5" style="fill:rgb(255,0,0);stroke:none;" />
  <ellipse cx="196.5679" cy="165.7914" rx="5" ry="5" style="fill:rgb(255,0,0);stroke:none;" />
  <ellipse cx="200.2035" cy="196.8037" rx="5" ry="5" style="fill:rgb(255,0,0);stroke:none;" />
  <ellipse cx="180.9271" cy="232.347" rx="5" ry="5" style="fill:rgb(255,0,0);stroke:none;" />
  <ellipse cx="220.2791" cy="258.8318" rx="5" ry="5" style="fill:rgb(255,0,0);stroke:none;" />
  <ellipse cx="83.9602" cy="123.3385" rx="5" ry="5" style="fill:rgb(255,0,0);stroke:none;" />
  <ellipse cx="220.8531" cy="246.8837" rx="5" ry="5" style="fill:rgb(255,0,0);stroke:none;" />
  <text dominant-baseline="hanging" text-anchor="middle" transform="translate(313.249,8)" font-family="Segoe UI" font-size="18" font-weight="700" fill="black">Articles</text>
  <polygon points="34.498,29.0795 592,29.0795 592,370.947 34.498,370.947" style="fill:none;stroke:black;stroke-width:1" />
  <polygon points="509.516,37.0795 584,37.0795 584,83.2385 509.516,83.2385" style="fill:none;stroke:none;" />
  <text dominant-baseline="hanging" text-anchor="start" transform="translate(537.516,45.0795)" font-family="Segoe UI" font-size="12" font-weight="400" fill="black">Cluster: 1</text>
  <ellipse cx="525.516" cy="50.106" rx="5" ry="5" style="fill:rgb(255,0,255);stroke:none;" />
  <text dominant-baseline="hanging" text-anchor="start" transform="translate(537.516,55.1325)" font-family="Segoe UI" font-size="12" font-weight="400" fill="black">Cluster: 2</text>
  <ellipse cx="525.516" cy="60.159" rx="5" ry="5" style="fill:rgb(0,191,127);stroke:none;" />
  <text dominant-baseline="hanging" text-anchor="start" transform="translate(537.516,65.1855)" font-family="Segoe UI" font-size="12" font-weight="400" fill="black">Cluster: 3</text>
  <ellipse cx="525.516" cy="70.212" rx="5" ry="5" style="fill:rgb(255,0,0);stroke:none;" />
</svg>